<svg xmlns="http://www.w3.org/2000/svg" viewBox="0 0 276 276"><title>HTML Academy</title><g fill="black"><path d="M0,0v275h275V0H0z M226.125,196.999L137.5,249.732l-88.625-52.733V34.558l88.623-9.291l0.932,0.097l87.695,9.194V196.999z"/><polygon points="214.113,189.368 137.5,234.953 60.887,189.368 60.887,123.151 137.171,168.556 137.3,176.784 84.966,145.638 84.89,153.627 137.43,185.203 137.56,193.65 85.037,162.406 84.961,170.395 137.5,201.97 190.542,170.232 190.542,162.208 190.477,162.247 190.477,159.505 190.477,156.213 190.477,136.15 214.113,122.037 "/><polygon points="213.999,113.448 193.04,125.796 183.363,131.495 137.22,104.047 137.144,112.034 176.583,135.488 176.235,135.694 175.385,136.195 169.782,139.496 137.22,120.125 137.144,128.115 162.845,143.397 156.782,147.454 156.634,147.543 137.22,136.105 137.144,144.094 149.883,151.596 136.906,159.388 61.001,114.267 137.015,68.576 137.015,68.584 "/><polygon points="214.113,105.411 137.087,60.004 137.087,59.993 137.077,59.999 137.068,59.993 137.068,60.004 60.887,105.357 60.887,44.754 137.501,36.722 214.113,44.754"/></g></svg>
